<svg id="Layer_1" data-name="Layer 1" xmlns="http://www.w3.org/2000/svg" viewBox="0 0 128 128"><defs><style>.cls-1{fill:#ef3a45;}.cls-2{fill:#4cb6ac;}.cls-3{fill:#eee;}.cls-4{fill:none;stroke:#263238;stroke-linecap:round;stroke-linejoin:round;stroke-width:2px;}</style></defs><title>icon-contact</title><circle class="cls-1" cx="64" cy="64" r="64"/><path class="cls-2" d="M95.1,29.44H32.88a8.88,8.88,0,0,0-8.56,8.92V73.91a8.63,8.63,0,0,0,8.56,8.64H71.4a0.17,0.17,0,0,1,.16.06L87,98.12V82.8a0.4,0.4,0,0,1,.44-0.24H95.1a8.65,8.65,0,0,0,8.58-8.64V38.36A8.89,8.89,0,0,0,95.1,29.44ZM43.67,62.81a6.68,6.68,0,1,1,3.09-12.6,0.31,0.31,0,0,1,.07.51l2.42,2.57a0.28,0.28,0,0,1,.09-0.06,0.32,0.32,0,0,1,.42.16A6.68,6.68,0,0,1,43.67,62.81Zm20.33,0a6.68,6.68,0,1,1,3.09-12.6,0.31,0.31,0,0,1,.07.51l2.43,2.57a0.28,0.28,0,0,1,.08-0.06,0.32,0.32,0,0,1,.42.16A6.68,6.68,0,0,1,64,62.81Zm20.23,0a6.68,6.68,0,1,1,3.09-12.6,0.32,0.32,0,0,1,.13.43,0.3,0.3,0,0,1-.07.08l2.43,2.57,0.08-.06a0.32,0.32,0,0,1,.42.16,6.6,6.6,0,0,1,.59,2.75A6.69,6.69,0,0,1,84.22,62.81Z"/><path class="cls-3" d="M46.46,50.77a6,6,0,1,0,3.25,5.36,6,6,0,0,0-.53-2.49,0.31,0.31,0,0,1,.07-0.36l-2.42-2.57A0.32,0.32,0,0,1,46.46,50.77Z"/><path class="cls-3" d="M66.79,50.77A6,6,0,1,0,70,56.13a6,6,0,0,0-.53-2.49,0.31,0.31,0,0,1,.07-0.36l-2.43-2.57A0.32,0.32,0,0,1,66.79,50.77Z"/><path class="cls-3" d="M87,50.77a6,6,0,1,0,2.71,2.87,0.31,0.31,0,0,1,.07-0.36l-2.43-2.57A0.32,0.32,0,0,1,87,50.77Z"/><path class="cls-4" d="M95.1,29.12H32.88A9.22,9.22,0,0,0,24,38.36V73.91a9,9,0,0,0,8.88,9H71.4l16,16v-16H95.1a9,9,0,0,0,8.9-9V38.36A9.23,9.23,0,0,0,95.1,29.12Z"/><path class="cls-4" d="M49.47,53.52a6.37,6.37,0,1,1-2.86-3"/><path class="cls-4" d="M69.79,53.52a6.37,6.37,0,1,1-2.86-3"/><path class="cls-4" d="M90,53.52a6.36,6.36,0,1,1-2.86-3"/></svg>