<svg id="Layer_1" data-name="Layer 1" xmlns="http://www.w3.org/2000/svg" viewBox="0 0 128 128"><defs><style>.cls-1{fill:#2e4059;}.cls-2{fill:#eee;}.cls-3{fill:#bdaaa4;}.cls-4{fill:#78909c;}.cls-5{fill:none;stroke:#263238;stroke-linecap:round;stroke-linejoin:round;stroke-width:2px;}</style></defs><title>icon-resume</title><circle class="cls-1" cx="64" cy="64" r="64"/><rect class="cls-2" x="32.8" y="24.32" width="62.72" height="79.36" rx="1.28" ry="1.28"/><rect class="cls-3" x="39.2" y="30.72" width="49.92" height="14.08"/><rect class="cls-4" x="39.2" y="76.8" width="19.2" height="19.2"/><line class="cls-5" x1="39.2" y1="51.52" x2="73.12" y2="51.52"/><line class="cls-5" x1="39.2" y1="57.92" x2="73.12" y2="57.92"/><line class="cls-5" x1="73.12" y1="64.32" x2="39.2" y2="64.32"/><line class="cls-5" x1="39.2" y1="70.72" x2="73.12" y2="70.72"/><line class="cls-5" x1="65.44" y1="77.12" x2="89.12" y2="77.12"/><line class="cls-5" x1="65.44" y1="83.52" x2="89.12" y2="83.52"/><line class="cls-5" x1="89.12" y1="89.92" x2="65.44" y2="89.92"/><line class="cls-5" x1="65.44" y1="96.32" x2="89.12" y2="96.32"/><line class="cls-5" x1="78.88" y1="51.52" x2="89.12" y2="51.52"/><line class="cls-5" x1="78.88" y1="57.92" x2="89.12" y2="57.92"/><line class="cls-5" x1="89.12" y1="64.32" x2="78.88" y2="64.32"/><line class="cls-5" x1="78.88" y1="70.72" x2="89.12" y2="70.72"/><rect class="cls-5" x="32.48" y="24" width="62.72" height="80" rx="1.28" ry="1.28"/><rect class="cls-5" x="38.88" y="31.04" width="49.92" height="14.08"/><rect class="cls-5" x="38.88" y="77.12" width="19.2" height="19.2"/></svg>