<svg id="Layer_1" data-name="Layer 1" xmlns="http://www.w3.org/2000/svg" viewBox="0 0 128 128"><defs><style>.cls-1{fill:#1b998b;}.cls-2{fill:#f9bf2c;}.cls-3{fill:#f37046;}.cls-4{fill:none;stroke:#263238;stroke-linecap:round;stroke-linejoin:round;stroke-width:2px;}</style></defs><title>icon-work</title><circle class="cls-1" cx="64" cy="64" r="64"/><path class="cls-2" d="M49,39.44a8.92,8.92,0,0,1,9-8.88H70.7a8.92,8.92,0,0,1,9,8.88l-2.55,0a6.37,6.37,0,0,0-6.4-6.34H57.91a6.37,6.37,0,0,0-6.4,6.34Z"/><rect class="cls-3" x="24.32" y="39.52" width="79.36" height="57.6" rx="5.12" ry="5.12"/><path class="cls-2" d="M95.06,96.48h4.45a4.37,4.37,0,0,0,4.17-4.64V87.39C99.2,87.71,95.38,92,95.06,96.48Z"/><path class="cls-2" d="M103.68,48.93V44.48a4.09,4.09,0,0,0-4.17-4.32H95.06A9.66,9.66,0,0,0,103.68,48.93Z"/><path class="cls-2" d="M25,87.39v4.45a4.9,4.9,0,0,0,4.79,4.64H34.2A10,10,0,0,0,25,87.39Z"/><path class="cls-2" d="M34.2,40.16H29.75C27.28,40.16,25,42,25,44.48v4.45A9.73,9.73,0,0,0,34.2,40.16Z"/><path class="cls-4" d="M49,39.6a8.79,8.79,0,0,1,9-8.73H70.7a8.89,8.89,0,0,1,9,8.84"/><path class="cls-4" d="M51.51,39.59a6.21,6.21,0,0,1,6.4-6.15h12.8a6.31,6.31,0,0,1,6.4,6.27"/><path class="cls-4" d="M104,91.84c0,2.82-1.67,5.6-4.49,5.6H29.75c-2.82,0-5.75-2.78-5.75-5.6V44.48c0-2.82,2.94-4.64,5.75-4.64H99.51c2.82,0,4.49,1.82,4.49,4.64V91.84Z"/><line class="cls-4" x1="98.24" y1="47.84" x2="98.24" y2="82.4"/><line class="cls-4" x1="33.28" y1="45.6" x2="89.6" y2="45.6"/><line class="cls-4" x1="30.4" y1="88.16" x2="30.4" y2="53.6"/><line class="cls-4" x1="95.36" y1="91.68" x2="39.04" y2="91.68"/><path class="cls-4" d="M34.86,39.83A10.24,10.24,0,0,1,24.63,49.6"/><path class="cls-4" d="M94.41,39.92a10.24,10.24,0,0,0,9.27,9.64"/><path class="cls-4" d="M34.87,97A10.24,10.24,0,0,0,24.63,86.72"/><path class="cls-4" d="M94.39,97A10.24,10.24,0,0,1,104,86.74"/></svg>