<svg id="Layer_1" data-name="Layer 1" xmlns="http://www.w3.org/2000/svg" viewBox="0 0 128 128"><defs><style>.cls-1{fill:#ef3a45;}.cls-2{fill:#b3e0db;}.cls-3{fill:#e1f2f1;}.cls-4{fill:none;stroke:#263238;stroke-linecap:round;stroke-linejoin:round;stroke-width:2px;}</style></defs><title>icon-mail</title><circle class="cls-1" cx="64" cy="64" r="64"/><path class="cls-2" d="M64,68.95a0.32,0.32,0,0,1-.2-0.07L26.1,38.34a6,6,0,0,0-1.78,4.26V85.77A6,6,0,0,0,26.1,90L54.51,67a0.32,0.32,0,0,1,.45,0,0.32,0.32,0,0,1,0,.45l-28.33,23A6.08,6.08,0,0,0,30.38,92h67.3a6.09,6.09,0,0,0,3.79-1.44l-28.33-23a0.35,0.35,0,0,1,0-.47A0.32,0.32,0,0,1,73.54,67l28.39,23a6,6,0,0,0,1.75-4.26V42.6a6,6,0,0,0-1.75-4.26L64.22,68.88A0.3,0.3,0,0,1,64,68.95Z"/><path class="cls-2" d="M97.68,36.32H30.38a6.11,6.11,0,0,0-3.79,1.47v0.07L64,68.19l37.43-30.28V37.78A6.1,6.1,0,0,0,97.68,36.32Z"/><path class="cls-3" d="M97.68,36.32H92.41L64,59.58,35.59,36.32H30.38a6.11,6.11,0,0,0-3.79,1.47v0.07L64,68.19l37.43-30.28V37.78A6.1,6.1,0,0,0,97.68,36.32Z"/><path class="cls-4" d="M104,85.17a6.49,6.49,0,0,1-6.35,6.51H30.35A6.49,6.49,0,0,1,24,85.17v-43A6.21,6.21,0,0,1,30.35,36h67.3A6.21,6.21,0,0,1,104,42.19v43Z"/><line class="cls-4" x1="54.72" y1="67.28" x2="26.54" y2="90.03"/><line class="cls-4" x1="101.52" y1="90.13" x2="73.34" y2="67.28"/><polyline class="cls-4" points="101.96 37.92 69.64 64.08 64.03 68.63 26.1 37.92"/><polyline class="cls-4" points="67.92 56.67 64.03 59.82 34.91 36.25"/><line class="cls-4" x1="93.15" y1="36.25" x2="72.87" y2="52.66"/></svg>