<?xml version="1.0" encoding="utf-8"?>
<!-- Generator: Adobe Illustrator 19.2.1, SVG Export Plug-In . SVG Version: 6.00 Build 0)  -->
<svg version="1.1" id="Layer_1" xmlns="http://www.w3.org/2000/svg" xmlns:xlink="http://www.w3.org/1999/xlink" x="0px" y="0px"
	 viewBox="0 0 40.2 34" style="enable-background:new 0 0 40.2 34;" xml:space="preserve">
<style type="text/css">
	.st0{fill:#2D4059;}
	.st1{fill:#F8FAED;}
</style>
<g>
	<path class="st0" d="M39.7,20c-0.3,0-0.5,0.2-0.5,0.5v12c0,0.3-0.2,0.5-0.5,0.5h-35c-0.3,0-0.5-0.2-0.5-0.5v-12
		C3.2,20.2,3,20,2.7,20s-0.5,0.2-0.5,0.5v12c0,0.8,0.7,1.5,1.5,1.5h35c0.8,0,1.5-0.7,1.5-1.5v-12C40.2,20.2,40,20,39.7,20z"/>
	<path class="st0" d="M27.7,7c0.3,0,0.5-0.2,0.5-0.5v-3c0-0.8-0.7-1.5-1.5-1.5h-11c-0.8,0-1.5,0.7-1.5,1.5v3c0,0.3,0.2,0.5,0.5,0.5
		s0.5-0.2,0.5-0.5v-3c0-0.3,0.2-0.5,0.5-0.5h11c0.3,0,0.5,0.2,0.5,0.5v3C27.2,6.8,27.4,7,27.7,7z"/>
	<path class="st0" d="M38.7,9h-35c-0.8,0-1.5,0.7-1.5,1.5v5c0,2.7,9.5,6.5,19.1,6.5c9.5,0,18.9-3.7,18.9-6.5v-5
		C40.2,9.7,39.5,9,38.7,9z M39.2,15.5c0,1.8-8.5,5.5-17.9,5.5c-9.5,0-18.1-3.8-18.1-5.5v-5c0-0.3,0.2-0.5,0.5-0.5h35
		c0.3,0,0.5,0.2,0.5,0.5V15.5z"/>
	<path class="st0" d="M21.3,25c0.9,0,1.9,0,2.9-0.1c0.3,0,0.5-0.3,0.5-0.5c0-0.3-0.3-0.5-0.5-0.5c-2,0.2-3.9,0.1-5.9,0
		c-0.3,0-0.5,0.2-0.5,0.5s0.2,0.5,0.5,0.5C19.2,25,20.3,25,21.3,25z"/>
</g>
<g>
	<path class="st1" d="M37.5,18c-0.3,0-0.5,0.2-0.5,0.5v12c0,0.3-0.2,0.5-0.5,0.5h-35C1.2,31,1,30.8,1,30.5v-12C1,18.2,0.8,18,0.5,18
		S0,18.2,0,18.5v12C0,31.3,0.7,32,1.5,32h35c0.8,0,1.5-0.7,1.5-1.5v-12C38,18.2,37.8,18,37.5,18z"/>
	<path class="st1" d="M25.5,5C25.8,5,26,4.8,26,4.5v-3C26,0.7,25.3,0,24.5,0h-11C12.7,0,12,0.7,12,1.5v3C12,4.8,12.2,5,12.5,5
		S13,4.8,13,4.5v-3C13,1.2,13.2,1,13.5,1h11C24.8,1,25,1.2,25,1.5v3C25,4.8,25.2,5,25.5,5z"/>
	<path class="st1" d="M36.5,7h-35C0.7,7,0,7.7,0,8.5v5C0,16.2,9.5,20,19.1,20c9.5,0,18.9-3.7,18.9-6.5v-5C38,7.7,37.3,7,36.5,7z
		 M37,13.5c0,1.8-8.5,5.5-17.9,5.5C9.6,19,1,15.2,1,13.5v-5C1,8.2,1.2,8,1.5,8h35C36.8,8,37,8.2,37,8.5V13.5z"/>
	<path class="st1" d="M19.1,23c0.9,0,1.9,0,2.9-0.1c0.3,0,0.5-0.3,0.5-0.5c0-0.3-0.3-0.5-0.5-0.5c-2,0.2-3.9,0.1-5.9,0
		c-0.3,0-0.5,0.2-0.5,0.5s0.2,0.5,0.5,0.5C17,23,18.1,23,19.1,23z"/>
</g>
</svg>
