<?xml version="1.0" encoding="utf-8"?>
<!-- Generator: Adobe Illustrator 19.2.1, SVG Export Plug-In . SVG Version: 6.00 Build 0)  -->
<svg version="1.1" id="Layer_1" xmlns="http://www.w3.org/2000/svg" xmlns:xlink="http://www.w3.org/1999/xlink" x="0px" y="0px"
	 viewBox="0 0 21 16" style="enable-background:new 0 0 21 16;" xml:space="preserve">
<style type="text/css">
	.st0{fill:#F8FAED;}
</style>
<path class="st0" d="M17.8,7c-0.1,0-0.3,0-0.3,0.2s0,0.3,0.2,0.3c2,0.6,2.8,1.6,2.8,3c0,1.3-1.2,2.3-1.9,2.8c-0.1,0-0.1,0.1-0.1,0.2
	v1.9c-0.4-0.1-1-0.4-1.6-1.1c-0.1-0.1-0.1-0.1-0.2-0.1c-0.1,0-0.3,0.1-0.4,0.1c-0.3,0.1-0.5,0.1-0.8,0.1c-1.3,0-2.2-0.3-3.1-1
	c-0.1-0.1-0.3-0.1-0.4,0.1S12,13.9,12.1,14c1,0.7,2,1,3.4,1c0.3,0,0.6-0.1,0.9-0.2c0.1,0,0.2,0,0.3-0.1c0.9,1,2,1.2,2,1.2
	c0,0,0,0,0,0c0.1,0,0.1,0,0.2-0.1c0.1,0,0.1-0.1,0.1-0.2v-2.1c1.3-0.9,2-2,2-3.1C21,8.8,20,7.7,17.8,7L17.8,7z M16.5,6.8
	C16.5,2.9,13,0,8.3,0C3.7,0,0,3,0,6.8c0,2.3,1.6,3.9,3,4.9v3.3c0,0.1,0,0.2,0.1,0.2c0,0,0.1,0,0.1,0c0,0,0.1,0,0.1,0
	c0.1,0,1.8-0.8,3.2-2.4c0.6,0.1,1.3,0.2,2,0.2C13.3,13,16.5,10.5,16.5,6.8L16.5,6.8z M8.6,12.5c-0.7,0-1.4-0.1-2-0.2
	c-0.1,0-0.2,0-0.2,0.1c-1,1.2-2.2,1.9-2.8,2.2v-3c0-0.1,0-0.2-0.1-0.2c-1.3-0.9-2.9-2.4-2.9-4.5c0-3.5,3.4-6.3,7.8-6.3
	c4.4,0,7.7,2.7,7.7,6.2C16,10.2,13,12.5,8.6,12.5L8.6,12.5z M8.2,5.8c-0.6,0-1,0.4-1,1s0.4,1,1,1s1-0.4,1-1S8.8,5.8,8.2,5.8z
	 M8.2,7.2C8,7.2,7.8,7,7.8,6.8S8,6.2,8.2,6.2s0.5,0.2,0.5,0.5S8.5,7.2,8.2,7.2z M11.8,5.8c-0.6,0-1,0.4-1,1s0.4,1,1,1s1-0.4,1-1
	S12.3,5.8,11.8,5.8z M11.8,7.2c-0.3,0-0.5-0.2-0.5-0.5s0.2-0.5,0.5-0.5s0.5,0.2,0.5,0.5S12,7.2,11.8,7.2z M4.8,5.8c-0.6,0-1,0.4-1,1
	s0.4,1,1,1s1-0.4,1-1S5.3,5.8,4.8,5.8z M4.8,7.3c-0.3,0-0.5-0.2-0.5-0.5s0.2-0.5,0.5-0.5s0.5,0.2,0.5,0.5S5,7.3,4.8,7.3z"/>
</svg>
