<?xml version="1.0" encoding="utf-8"?>
<!-- Generator: Adobe Illustrator 19.2.1, SVG Export Plug-In . SVG Version: 6.00 Build 0)  -->
<svg version="1.1" id="Layer_1" xmlns="http://www.w3.org/2000/svg" xmlns:xlink="http://www.w3.org/1999/xlink" x="0px" y="0px"
	 viewBox="0 0 16 16" style="enable-background:new 0 0 16 16;" xml:space="preserve">
<style type="text/css">
	.st0{fill:#F8FAED;}
</style>
<path class="st0" d="M8,0C3.6,0,0,3.6,0,8s3.6,8,8,8s8-3.6,8-8S12.4,0,8,0L8,0z M8,15.5c-4.1,0-7.5-3.4-7.5-7.5S3.9,0.5,8,0.5
	s7.5,3.4,7.5,7.5S12.1,15.5,8,15.5z M5.2,8.2c0.6,0,1-0.4,1-1s-0.4-1-1-1s-1,0.4-1,1S4.7,8.2,5.2,8.2z M5.2,6.8
	c0.3,0,0.5,0.2,0.5,0.5S5.5,7.8,5.2,7.8S4.8,7.5,4.8,7.2S5,6.8,5.2,6.8z M10.8,8.2c0.6,0,1-0.4,1-1s-0.4-1-1-1s-1,0.4-1,1
	S10.2,8.2,10.8,8.2z M10.8,6.8c0.3,0,0.5,0.2,0.5,0.5S11,7.8,10.8,7.8s-0.5-0.2-0.5-0.5S10.5,6.8,10.8,6.8z M11.4,11
	c-0.8,0.9-2,1.4-3.3,1.4c-1.3,0-2.5-0.5-3.3-1.5c-0.1-0.1-0.3-0.1-0.4,0s-0.1,0.3,0,0.4c1,1.1,2.3,1.7,3.7,1.7
	c1.4,0,2.7-0.6,3.7-1.6c0.1-0.1,0.1-0.3,0-0.4S11.5,10.9,11.4,11L11.4,11z"/>
</svg>
